<!--?xml version="1.0" encoding="utf-8"?-->
<!-- Generator: Adobe Illustrator 22.1.0, SVG Export Plug-In . SVG Version: 6.00 Build 0)  -->
<svg version="1.1" id="_x30_" xmlns="http://www.w3.org/2000/svg" xmlns:xlink="http://www.w3.org/1999/xlink" x="0px" y="0px" viewBox="0 0 800 797.6" style="enable-background:new 0 0 800 797.6;" xml:space="preserve" preserveAspectRatio="none">
<style type="text/css">
	.st0{fill:#231815;}
</style>
<g>
	<path class="st0" d="M785.3,706.9c0.6-3.6,2.3-6.3,3.8-8.6c0.7-1.1,1.4-2.2,1.9-3.2c0.2-0.4,0.4-1.3,0.6-2.1
		c0.1-0.8,0.2-1.7,0.2-2.5c-0.1-0.3-0.2-0.6-0.4-0.9c0.2-0.4,0.2-1,0.3-1.6c0-0.3,0-0.6,0-1l0-0.5l0-0.3v-0.2c0-0.9-0.2-1.9-0.3-2.7
		c-0.3-1.6-0.7-2.6-0.1-1.5c-2.1-4.4-2.4-5.2-2.4-9.7c0-0.5,0-1,0-1.5l0-0.7l0-0.3c0-0.1,0-0.3,0-0.3c0.1-0.3,0.2-0.5,0.3-0.6
		c0.1-0.2,0.2-0.3,0.2-0.5l0-0.1l0,0l0-0.1l0-0.6l0.1-1.2l0.2-4.9l0.4-6.1l0.4-7.3l-1.1-8.2l-0.9-7l-0.9-6.4l0.5-9.2l0.3-5.6
		l0.2-3.5c0.1-1.3,0.1-2.7,0.2-4.3l0.2-11.7l0.1-4.1l0.1-2l0-0.5l0-0.3l0-0.2l0.1-0.2l0.2-0.9l0.5-2.6l1.3-6.5l2.4-12.6l-3.7-21.9
		l0-0.2l1.3-10.2l1.3-10l0.4-8.9l0.3-7.1l0.1-3.2l0-1.5l0-0.7c0-0.1,0-0.1,0-0.2c0-0.1,0,0,0-0.2l0.1-0.7l0.1-1.3
		c0.1-0.9,0.1-1.7,0.1-2.4c0-1.5-0.1-2.8-0.3-3.9c-0.5-2.2-1.5-3.4-3.3-3.7c-4-0.5-4.5-0.9-3.4-2.2c0.5-0.6,1.4-1.5,2.5-2.6
		c0.5-0.6,1.1-1.2,1.6-2c0.3-0.4,0.5-0.8,0.8-1.2c0.1-0.2,0.3-0.4,0.4-0.7c0.1-0.4,0.3-0.7,0.4-1.1l0.2-0.7c0.1-0.2,0.1-0.5,0.2-0.6
		c0.1-0.3,0.2-0.6,0.3-0.9c0.2-0.7,0.4-1.3,0.6-2.1c0.3-1.5,0.5-3.1,0.6-4.8c0.1-2.1,0.1-4.2,0.3-6.3l0.2-3.3l0.3-5.4l-1.5-4.7
		l-0.8-2.8l-1.6-5.5l-1.6-5.5l-0.8-2.8c-0.2-0.6-0.1-0.5-0.2-0.6l0-0.3l0.1-0.4l0-0.1c0,0,0-0.1,0-0.2v-0.2l0-0.9l0-3.6
		c0-2.4-0.1-4.7-0.2-7l-0.2-5.4l5.8-22l-0.3-2.8l-0.7-7.9l-0.4-5l-0.6-7.8l0-0.1v-0.5l0-1.1l0-2.5l-0.1-6.3
		c-0.3-15.6-0.7-15.6-1-31.3l0-1.4l-0.1-1.3l-0.1-0.8l-0.2-1.6c-0.2-1-0.4-2-0.6-3c-0.4-1.9-0.9-3.7-1.4-5.4
		c-0.5-1.7-1.1-3.3-1.6-4.9l-0.8-2.4c-0.1-0.5-0.3-0.5-0.4-0.7c-0.1-0.2-0.2-0.3-0.3-0.5c-0.1-0.2-0.2-0.4-0.2-0.7l-0.1-0.2
		c0-0.1,0-0.2,0-0.4l0-0.8c0-1.1,0-2.3,0-3.5c0.1-2.4,0.3-5,0.8-7.9c1.3-7.7,2.9-10,4.5-12.3c1.6-2.3,3.3-4.5,4.4-12.3l0.7-5.1
		l-0.2-3.4l-0.1-1.9l-0.1-3.3l-0.1-5.5c0-3.6-0.2-7.4-0.4-14.5c-0.2-4-0.3-6.9-0.4-9.4l-0.4-7.4l-1.5-7.1c-0.5-2.4-1-5.2-1.7-9
		c-0.2-1.3-0.5-2.5-0.8-3.5l-0.2-0.8l-0.1-0.4l-0.1-0.1c-0.1-0.1-0.2-0.2-0.2-0.3c-0.1-0.1-0.2-0.2-0.3-0.3c-0.1,0-0.1-0.4-0.1-0.6
		l-0.2-0.7c-0.2-0.9-0.4-1.7-0.7-2.3c-0.5-1.4-1-2.4-1.4-3.3c-0.8-1.8-1.2-3,0-5.2c0.7-1.3,1.3-2.6,1.8-3.9c0.3-0.7,0.5-1.3,0.7-2
		c0.2-0.7,0.4-1.1,0.6-2.6l0.1-1.1c0-0.3,0.1-0.5,0.1-0.7l0.2-1.3c0.1-0.9,0.2-1.7,0.2-2.6c0.1-1.8,0.1-3.5,0.1-5.4
		c0-1.8-0.1-3.6-0.2-5.5l-0.2-2.8l-0.1-0.7l0-0.4l0-0.1l0,0l-0.1-0.2l0-0.3v-0.1l0-0.2l0-0.4l0.1-0.8l0.4-3.1
		c0.3-2.1,0.6-4.2,0.9-6.4l1.8-10.8l-1.9-21.2l0-0.1l5.5-24.5l-7.1-12.6l-3.4-6l-0.7-1.2l-0.1-0.1l0-0.1l-0.1-0.1l-0.2-0.4l-0.1-0.4
		l0-0.2l0-0.1l0-0.4l-0.4-4l-0.5-4.8l-0.9-11.1l-0.4-4.4c-3.1-1.8-6.1-3.5-9-5l-2.1-1.1l-1.1-0.6l-0.5-0.3l-0.3-0.1l-0.2-0.1
		l-2.4-1.1c-1.6-0.7-3.2-1.4-4.8-2l-2.4-1c-0.9-0.4-1.4-0.5-2.8-1.2l-0.8-0.3l-0.4-0.1c-0.1-0.1-0.2-0.1-0.3-0.1l-1-0.3l-2-0.6
		c-1.3-0.4-2.7-0.9-4.1-1.4c-2.8-1-5.6-2.1-8.6-3.5l-2.5-1.2l-1.6-0.5l-0.6-0.2l-0.5-0.2c-0.6-0.2-1.1-0.4-1.6-0.6
		c-0.9-0.4-1.6-0.8-2.1-1.2c-1-0.7-1.5-1.4-1.9-2.1c-0.5-0.7-1-1.4-2.4-2.1c-0.7-0.4-1.5-0.8-2.7-1.2c-0.6-0.2-1.2-0.5-1.9-0.7
		l-1.1-0.4L718.7,8l-2.2-0.6L711.2,7L708,6.7l-5.1-0.4l-4.5-0.4l-2.4-0.2l-4.6-0.3l-10,2.1l-8,1.7L671,9.8l-0.6-0.1l-3.4-0.8
		L657,6.5l-5.9-1.4l-23.9-0.8L621.4,5c-4.3,0.5-7.4,0.8-10,1.2l-3.6,0.5l-1.6,0.2l-0.4,0.1c-0.1,0-0.1,0-0.1,0l-0.2,0l-0.1,0l-0.1,0
		l0,0l-0.2,0l-1.4,0l-3.1-0.1c-2.3-0.1-5-0.1-8.5-0.3l-8.8-0.4L578.9,7l-2.5,0.4l-4.5,0.7l-5,0.9l-6,1.1l-0.2,0l-1,0.1
		c-5.2,0.4-8.7,0.7-11.6,1l-4,0.4l-0.5,0l-0.2,0l0,0l-0.2,0l-0.4,0.1l-0.4-0.1l-0.1,0c-0.1,0,0,0-0.3-0.1l-1.3-0.4l-6.3-2.2
		l-13.6-4.8L513.6,5l-4.1,0.5c-2.9,0.3-6.4,0.8-11.6,1.5L497,7l-7.2-0.2l-5.9-0.2c-3.7-0.2-7.6-0.3-15.1-0.5c-3.3-0.1-6-0.1-8.2-0.2
		l-7.1-0.1l-3,0.6l-1.7,0.3l-3.6,0.7c-2.6,0.5-5.8,1.1-10.2,1.9l-0.7,0.1l-0.3,0.1c-0.1,0-0.1,0-0.1,0l-0.2,0.1
		c-0.1,0.1-0.3,0.1-0.4,0.2c-0.2,0-0.4,0.1-0.6,0.3l-0.1,0.1l-0.1,0.1c0,0,0,0-0.1,0c-0.3,0-0.5,0.1-0.8,0.1
		c-0.9,0.2-1.4,0.6-2.1,0.9c-1.3,0.6-3.3,1-9.9-0.7l-1.8-0.5l-2.4-0.7c-1.6-0.5-3.2-0.9-4.7-1.4c-1.5,0.5-3,0.9-4.5,1.4l-2.2,0.7
		l-0.6,0.2c-0.2,0.1-0.4,0.1-0.5,0.1l-0.7,0.2c-1.9,0.4-3.8,0.8-5.7,1.2l-5.6,1.1l-0.1,0l0,0l-0.1,0l-0.1,0l-0.2,0l-0.4-0.1
		c-0.3-0.1-0.5-0.1-0.7-0.2l-0.6-0.6l-0.3-0.3l-0.1-0.1l-0.1-0.1l-0.4-0.2c-1.9-0.8-3.9-1.6-6.1-2.3l-11.9-3.9l-23.1,0.8l-23.9-0.2
		l-10.6,3.2l-7.6,2.2l-2.7,0.8l-0.5,0.1l-0.3,0l-0.2,0l-0.8,0l-3.7-0.2L285.7,11c-3.9-0.2-6.8-0.3-9.3-0.4l-6.3-0.3l-6.3-0.3
		c-1.2-0.1-2.6-0.1-4.1-0.2l-5.1-0.4c-4-0.3-6.9-0.5-9.4-0.6l-7-0.3l-6.8,0.3c-2.4,0.1-5.3,0.2-9.1,0.3l-6.7,0.1l-3.5,0.3l-2.6,0.2
		l-4.6,0.3l-4.9,0.4l-5.5,0.5l-2.3-0.1c-4.8-0.3-8.1-0.4-10.9-0.4l-3.8-0.1l-1.8,0l-0.5,0l-0.2,0l0,0l-0.2,0c-0.1,0-0.1,0-0.3,0
		l-1.3-0.2l-2.8-0.6c-2-0.4-4.4-1-7.3-1.8c-1.6-0.4-3-0.3-4.5,0c-0.8,0.1-1.5,0.3-2.4,0.5l-1.3,0.3c-0.1,0-0.2,0.1-0.4,0.1l-0.6,0
		l-1.1,0L151,8.9l-1.2,0.2c-0.8,0.1-1.7,0.3-2.6,0.3c-1.9,0.1-4,0.1-6.6-0.3c-3-0.4-5.9-0.9-8.6-1.5l-2-0.4L128,7l-3.9-0.6
		c-2.6-0.4-5.2-0.9-7.8-1.3c-1.3-0.2-2.6-0.4-4-0.6c-0.4-0.1-1.9-0.2-3-0.3L105.7,4l-4.1,1.5l-1,0.4L100.1,6l-0.3,0.1l-1.2,0.4
		c-1.6,0.6-3.2,1.2-4.9,1.9l-7.2,2.9l-2.7,1.1l-0.3,0.1l-0.1,0l-0.1,0l-0.2,0.1l-0.3,0l-0.1,0l-0.4,0l-0.9,0.1L77.6,13
		c-2.8,0.2-6.1,0.6-10.8,1.1c-5.9,0.9-9.6,1.6-12.8,2.1l-4.5,0.8l-8.7,1.5l-9.7,8.9l-12.2,11l-2.5,12c-0.6,2.8-1.3,6.1-2.3,11.1
		l-0.6,3.1l-0.1,4.4l-0.1,2.9l0,4.7l0,4.1l0,2l0.1,0.5l-0.1,0.4c0-0.1-0.1,0.5-0.2,0.8l-0.4,1.1l-1.8,5.3l-5.1,14.7l1.3,20.8
		l0.3,4.3l1.4,7.3l0.9,4.9l0.8,4.6l0.2,1.3l0.1,0.6l0,0.1l0.1,0.6l-0.2,0.5l-0.6,1.9l-6,19.7L9,189.8l1.1,3.9l0.2,0.6l-0.1,0.5
		l0,0.3l-0.2,1.2L9,200.7l-1.1,5.1l-1.8,8L6,215.8l-0.3,3.8l-0.2,3.2l-0.5,5l-0.4,4.2l-0.1,1l-0.2,1.8L4,239l2.2,6.9l1.9,5.8
		c0.4,1.3,0.8,2.4,1.1,3.5l0.4,1.6l0.2,0.7L10,258l0,0.2v0c0,0.3-0.1,0.5-0.3,0.7c-0.2,0.2-0.4,0.3-0.6,0.3l-0.1,0.1l0,0L9,259.6
		L8.8,260c-0.2,0.6-0.5,1.3-0.7,2c-0.8,2.8-1.5,6.1-1.8,11c0,0.2,0,0.3,0,0.5l-0.2,0.8L5.8,276l-0.6,2.9l0.9,5.2l0.6,2.6
		c0.3,1.5,0.5,2.8,0.6,4c0.2,2.3,0,3.8-0.3,5.3c-0.6,3-1.8,5.8-1.3,13.1c0.3,3.9,0.5,6.8,0.8,9.3l0.4,3.4l0.2,1.6l0.3,2.7l0.8,2.6
		l0.5,1.5l1,3.2c0.7,2.3,1.5,5.2,2.5,9l0.8,3.2c0,0.2,0.1,0.4,0.1,0.6c-0.1,0.2-0.1,0.4-0.2,0.6c0-0.1-0.1,0.5-0.2,0.9l-0.3,1.2
		l-1,4.5c-0.3,1.5-0.7,3.1-1,4.9l-0.6,3l-0.4,2.4l-0.6,3.5l0.8,4.8l0.6,3.6l0.5,3l1,4.8l0.8,3.9c0.1,0.2,0.2,0.4,0.3,0.7l-0.1,0.4
		l0,0.2l0,0.1l-0.1,0.3l-0.2,0.7c-0.6,1.9-1.2,4-2.1,6.6L5.7,410l2,7.5l1.2,4.3l2.6,9.8l0.1,0.4l-2.4,8.5L8,445l-2.5,9l3.2,10.3
		c1.1,3.4,2,6.1,3,8.4l0.7,1.7l0.2,0.4c0,0.1,0.1,0.1,0.1,0.1l0,0l0.2,0.2l0.7,0.7c0.1,0.3,0.2,0.7,0.3,1l0,0.2l0,0l0,0.1l0,0.2
		l-0.1,1l-0.2,2.1c-0.4,2.9-0.9,6.1-1.9,10.3l-1.1,4.7l-0.4,7.3l-0.3,5c-0.1,1.6-0.2,3.1-0.4,4.7L9,515.1c-0.1,1-0.2,1.5-0.5,3.5
		l0,1l0,0.5c0,0.2,0,0.2,0,0.4l-0.1,1.3l-0.1,2.9c-0.2,4.6-0.4,7.6-0.5,10c0,1.2-0.1,2.2-0.1,3.2l0,1.4c0,0.1,0,0.2,0,0.3L7.6,540
		l0,0.1l0,0l0,0.1l-0.1,0.6l-0.4,2.7l-1,7.6l-1.5,11.1l1.9,11.3l2.1,11.9v0l1.5,14.9c0.2,1.9,0.4,3.8,0.6,6.2l0.3,8.9
		c0.2,7.5,0.3,11.2-0.1,15.1c-0.2,3.8-0.5,7.7-0.8,15.3c0,0.3-0.1,0.7-0.1,1l0,0.3l0,0.2v0.1l0,0c0,0.1,0.1,0.1,0.2,0.2
		c0,0.3,0.1,0.6,0.1,0.9c0,0.6,0.7,1.1,0.7,1.7c0,0.6-0.7,1.5-0.6,2.1c0.1,0.6,0.6,1,0.8,1.5c0.1,0.6-1.9,11-1.7,11.5L9,666.9
		l-0.1,0.8L8.7,669l-1,11.3l-0.5,5.4L7,688.4l-0.3,4l0.4,2.7l0.2,1.6l0.4,3.1l0.7,6.2c0.8,5.1,2.1,5.6,3.9,5.6c0.9,0,1.9-0.2,3,0.1
		c0.5,0.1,1.1,0.3,1.7,0.7c0.3,0.2,0.6,0.4,0.9,0.7c0.3,0.4,0.6,0.8,1,1.2c1,1.2,2,2.2,3,3.8c1.1,1.6,2.2,3.7,3.5,6.3
		c0.9,2,1.8,3.6,2.5,4.8c0.4,0.6,0.7,1.1,1,1.6c0.3,0.4,0.6,0.7,0.9,1c0.7,0.5,1.3,0.6,1.7,0.4c0.4-0.2,0.6-0.7,0.8-1.4
		c0.1-0.2,0.1-0.4,0.2-0.5c0-0.2,0.1-0.4,0.1-0.7c0-0.6,0.1-1.2,0.1-1.9c0-1.4-0.1-3-0.3-4.8c-0.2-1.8-0.5-3.7-0.8-5.7
		c-0.2-1-0.3-2-0.5-3.1l-0.3-1.6l-0.1-0.4l0-0.2l0-0.4v-0.3l0-0.2c0-0.1,0-0.1,0-0.2l-0.1-1.3l-0.2-2.6c-0.2-1.7-0.4-3.4-0.6-5.1
		c-0.5-3.4-0.9-5.7-1.2-7.5l-0.4-2.2l-0.2-0.8l0-0.6l0-0.3l0-0.6c0.1-0.8,0.1-1.6,0.3-2.9c0.3-2.4,0.9-6.3,2.1-13.9
		c0-0.2,0.2-0.6,0.5-1l0.4-0.7c0.1-0.2,0.3-0.2,0.4-0.3c0.2-0.1,0.3-0.1,0.4-0.2c0.1-0.2,0.2-0.3,0.3-0.4c0.3-0.5,0.4-9,0.7-9.5
		c0.3-0.5,0.9-5.2,1.2-5.8c0.2-0.6,0.7-1,0.9-1.6c0.2-0.6,0.2-1.4,0.3-2c0.1-0.3,0.1-0.5,0.1-0.8c0-0.5,0-1,0-1.5c0-0.2,0-0.4,0-0.6
		c0-0.3,0.1-0.6,0.1-0.8c0.1-0.2,0.1-0.3,0.2-0.5c0.1-0.3,0.3-0.6,0.3-1c0.3-8,0.5-11.9,0.7-15.9c0.3-3.9,0.1-8.1-0.1-16.2l-0.3-9.6
		c-0.2-2.5-0.4-4.5-0.6-6.5l-1.5-16.3l0-0.3l-0.8-4.4l-0.6-3.3c-0.4-2-0.8-3.6-1.1-5.2l-1-4.4l-0.5-2.3l-0.2-0.7
		c-0.1,0.3,0.4-3.6,0.9-7.2c0.4-2.9,0.8-5.3,1.1-7.3l1-6.4l-0.1-3l0-1.8l-0.1-3.9c-0.1-2.8-0.2-6.1-0.4-11l-0.1-1.6
		c0-0.7,0-0.5,0-0.7l0.3-5.8l0.2-4.9l0.2-4.6l0.1-2.6l0.1-1.4l0-0.3V499l0-0.2l0-0.2l0.1-0.3l0.3-1.5l0.8-3.4l2.1-9.1l2.2-9.4
		l-2.8-9.2l-2.7-8.9l-0.8-2.6l-0.2-0.7l0.2-0.7l0.1-0.3l0-0.1l0.1-0.3l0.2-0.6l1.3-4.5l1.4-5l0.9-3.4l1.8-6.6l-0.8-3.2l-0.6-2.2
		l-0.5-2c-0.2-0.7-0.4-1.4-0.6-2c-0.4-1.2-0.8-2.1-1.3-2.9c-0.8-1.6-1.6-2.5-2.4-3.3c-0.8-0.8-1.6-1.5-2.4-2.7
		c-0.2-0.3-0.4-0.6-0.6-1c-0.2-0.1-0.3-0.3-0.5-0.5c-0.3-0.4-0.6-1-0.9-1.6c0.1-0.5,0.2-1.1,0.5-1.8l0.3-0.8l0.4-1.1
		c0.3-0.7,0.5-1.3,0.7-1.8c0.4-1,0.8-1.6,1.1-2c0.6-0.8,1-0.5,1.4-0.3c0.8,0.5,1.6,0.9,4-6.5l2.2-6.7l-1.3-7.9l-0.8-5.4l-0.9-5.6
		l-0.4-2.8l0-0.2l0-0.1l0-0.1l0-0.2l0-0.4l0.2-0.8l0.5-2.8l1-5.5l1-5.4l1.3-7.7l-2.4-9c-1-3.8-1.7-6.6-2.3-9l-0.8-3.3l-0.3-1.4
		l0-0.3l0-0.3l-0.1-1.5l-0.2-3.3c-0.1-2.4-0.3-5.3-0.6-9.2c-0.5-7.1-0.8-11-1.1-14.6l-0.5-5.6l-0.4-5.1l0.4-1.2
		c1.6-4.8,2.7-8.1,3.7-10.8l3.9-11.3l-5-15.3c-1.1-3.2-1.9-5.3-2.7-6.7c-0.2-0.5-0.3-0.4-0.4-0.5c-0.1-0.1-0.2-0.1-0.3-0.2
		c-0.2-0.1-0.5-0.2-0.7-0.3c-0.3-0.2-0.5-0.3-0.8-0.5c-0.1-0.1-0.3-0.2-0.4-0.4l-0.2-0.2c0-0.2-0.1-0.4-0.1-0.6
		c-0.3-1.7-0.5-4.3-0.2-8.8c0.1-1.7,0.3-3.3,0.4-4.8l0.3-2.2l0.1-0.5c0-0.2,0.1-0.4,0.1-0.4l0.1-0.5l0.1-0.3l0.1-0.1l0-0.1l0.1-0.2
		l0.5-1.3l1-2.6l2-5.1c0.7-1.7,1.3-3.4,2-5.1l0.5-1.3l0.1-0.3l0.2-0.6l0.4-1.2c0.5-1.6,1-3.3,1.4-5c-0.5-2.1-1-4.2-1.5-6.5l-0.5-2.1
		l-0.5-2l-2.3-8.3l-0.5-1.7l-0.2-0.6l0.2-0.7l0.7-2.4l2.9-9.6l2.5-8.5l-1.1-5.5l-0.7-3.3l-1-4.6l-1.1-4.8l-1.2-5.6l-0.2-2.6
		c-0.3-4.8-0.5-8.1-0.6-10.8l-0.1-3.8l0-0.4l0-0.1l0-0.2l0-0.4l0.3-0.5l0.1-0.1l0.2-0.7l0.5-1.4c0.7-2,1.5-4.3,2.5-7.2L38.7,88
		l0.8-20.2l0.2-1c1-5,1.6-8.4,2-11.2l0.3-2l0.1-0.5c0-0.1,0-0.1,0-0.2v-0.2c0-0.3,0-0.7,0-1c0.2-0.3,0.5-0.6,0.8-1l2.2-2.1l2.8-2.6
		l2-1.8l0.9-0.8l0.4-0.3l0.1-0.1c0.3-0.3,0.6-0.5,0.9-0.6c0.2,0,0.5,0,0.7,0l0.3,0l0.1,0l0.1,0c0,0,0,0,0.1,0l4.4-0.5
		c3-0.3,6.6-0.9,12.3-1.7L89.6,38l13.9-5.7l5.3-2.2l1-0.4l0.2-0.1l0.4-0.2l0.5-0.1l0.1,0c0.1,0,0,0,0.3,0l1.1,0l4.3-0.1
		c3-0.1,6.5-0.1,12.1,0c5.8,0.3,9.4,0.7,12.5,1l8.4,0.9l0.2,0.1l0.8,0.2l2.1,0.5l5,1l7.4,1.5l6.2,1.2l8.4,0.3
		c2.8,0.1,6.1,0.3,10.9,0.5l4.2,0.2l4.5-0.4l3-0.2l4.9-0.4l4.6-0.3l5.2-0.4l5.8-0.1c2.9-0.1,5.6-0.3,8.1-0.7
		c1.3-0.2,2.5-0.4,3.7-0.7l1.8-0.4l0.9-0.2c0.2,0,0.2-0.1,0.2-0.1l0.1-0.1l0.3-0.1l0.7-0.1l1.5-0.2l2.9-0.5c2-0.3,3.9-0.6,6-0.9
		c2-0.3,4.1-0.5,6.3-0.6c1.1,0,2.2-0.1,3.4-0.1c1.2,0,2.4,0,3.6,0c15.7,0.6,6.5,5.3,22.2,6c4.6,0.2,7.8,0.4,10.5,0.7l3.7,0.3l1,0.1
		l1.5,0.1l3.1,0.2l7.4-2c2.1-0.6,4.5-1.3,7.6-2.2l4.8-1.5l1-0.3l0.5-0.1l0.1,0l0.4-0.2l0.3,0l0.1,0l0.1,0l0,0l0.2,0l2.4-0.1l4.6-0.1
		c3.2-0.1,6.9-0.1,12.9-0.1c5.7-0.2,9.3-0.2,12.4-0.2l4.4,0l1.1,0h0.6c0.1,0,0.1,0,0.1,0l0.1,0l0.6,0.1c0.4,0.2,0.1,0.1,2.1,0.8
		l5.5,1.8l16,5.2l11.2-4.3l9.8-3.7l1-0.4l7.2,1.8l4.7,1.2l8.6,2.2l7.1-1.2c4.4-0.8,7.6-1.3,10.2-1.7l3.6-0.6l1.7-0.3l0.5-0.1l0.3,0
		l0.4,0l0.7,0l3.1,0.1l8.2,0.3c7.5,0.2,11.4,0.4,15.2,0.5l5.9,0.2l9.3,0.3l2.9-0.4c5.2-0.7,8.7-1.2,11.6-1.7l4-0.7l0.2,0
		c0.1,0,0.1,0,0.1,0l0.1,0l0.2-0.1l0.5-0.1l0.6,0.1l0.3,0.1l0.1,0l0.3,0.1l0.6,0.2l6.2,2.1c1.8,0.6,3.6,1.3,5.4,2l7.8,2.9l4.7-0.3
		l1.2-0.1l0.7,0l1.4,0l5.4-0.2l5.4-0.2l2.7-0.1l1.4-0.1l0.9,0l1.2-0.1l7.4-1.3c2.2-0.4,4.4-0.8,6.7-1.2c3-0.6,4.7-1.2,5.7-1.9
		c0.2-0.2,0.5-0.3,0.6-0.5c0-0.1,0-0.3,0-0.4c0-0.3,0-0.6,0-1c-0.1-0.7-0.2-1.4-0.3-2.1c-0.1-0.7-0.1-1.3,0.4-1.9
		c0.1-0.1,0.3-0.2,0.5-0.4c0.1-0.1,0.2-0.1,0.4-0.1l0.2-0.1l0.4,0c1-0.1,2.4-0.2,4.1-0.1c0,0,0.6,1.4,2.8,2.9
		c1.1,0.8,2.6,1.6,4.6,2.3c1,0.4,2.1,0.7,3.4,1c0.6,0.1,1.3,0.3,2,0.4c0.4,0.1,0.7,0.1,1.1,0.2l2,0.2l2.7-0.2c0.6,0,1.2-0.1,1.9-0.2
		l17.1-1.8l19.6,0.9l3.5,0.8l10.1,2.3l9.6,2.2l16.2-3.7l4.5-1l1-0.2l0.5-0.1l0.1,0l0.4-0.1l0.3,0c0.1,0,0.1,0,0.6,0.1l2.4,0.2
		l4.5,0.4l5.1,0.4l5.6,0.4l0.3,0.1l1.7,0.5c0.6,0.2,1.2,0.3,1.8,0.4c1.1,0.2,2.2,0.4,3.1,0.5c1.8,0.2,3.3,0.2,4.6,0.1
		c1.3-0.1,2.4-0.3,3.6-0.4c0.6-0.1,1.3-0.1,1.9-0.1l0.5,0l0.3,0l0.1,0l0.1,0c0.2,0,0.4-0.1,0.6-0.1c0.1,0,0.3,0,0.4,0
		c0.1,0,0.2,0,0.6,0.1c0.6,0.2,1.2,0.4,1.8,0.6c1.3,0.5,2.7,1.1,4.3,1.9c2.1,1,4,2,5.6,3c0.8,0.5,1.6,1,2.3,1.5
		c0.7,0.5,1.6,1.1,1.7,1.3l0.2,0.3l0,0.1l0.1,0.1l0.2,0.2l0.9,0.9l1.8,1.7c1.2,1.2,2.3,2.3,3.5,3.5c0.6,0.6,1.2,1.2,1.9,1.8l0.5,0.4
		c0.1,0.1,0.1,0.1,0.1,0.1l0,0.1l0.2,0.4c0.3,0.5,0.5,0.8,0.9,1.2c0,0.2,0,0.4,0,0.6l0.1,0.8l0,0.3l0,0.2l0.1,0.7
		c0.2,1.9,0.4,3.4,0.5,4.8l0.5,4l0.7,6.5l3.9,6.6c1,1.7,2.1,3.6,3.4,6l1.4,2.5l0.3,0.6l0.1,0.3c0.2,0.4,0.3,0.7,0.5,1
		c-0.2,0.5-0.3,0.8-0.4,1.2l-0.1,0.3l0,0.1l-0.1,0.2l-0.1,0.5L768,92c-0.4,1.5-0.8,3.1-1.3,5.1l-0.8,3.2l-1.3,5.6l-0.1,0.6l2.1,22
		l-1.2,7.5l-2.3,13.8l0.9,19.9l0.1,2.5l-1.1,22.5l1.4,7.9c0.7,3.8,1.3,6.6,1.8,9l0.7,3.2l0.3,1.5l0,0.2l0,0.1l0,0.1l0.1,0.2l0,0.2
		l0,0.1l0,0.3l0.1,1.5l0.3,3.4c0.2,2.5,0.3,5.5,0.5,9.4c0.2,7.2,0.4,11.1,0.4,14.7l0.1,5.6l0.2,6.1l-0.1,0.6l-0.3,2
		c-2.2,15.4-2.2,15.4-4.7,30.8c-0.5,2.9-0.7,4.8-0.8,6.1l0,0.2l0,0.3l-0.1,0.7c0,0.5-0.1,0.8-0.1,1.2c0,0.7,0,1.2,0,1.5
		c0.4,1.2,0.8,1.3,1.3,3.1l0.1,0.3l0.1,0.2c0,0.2,0.1,0.4,0.2,0.6c0.1,0.4,0.2,0.9,0.3,1.6c0.2,1.3,0.4,3,0.6,5.4c0.2,2,0.3,4,0.5,6
		l0.2,2.9l0.1,1.4l0,0.7c0,0.2,0,0.1,0,0.2l0,0.1l-0.8,15.4c-0.3,5.3-0.4,10.7-0.3,16.4l0.2,6.3l0.2,5.2l0.2,1.6l0.1,1.1l0.3,2
		l0.5,4.1l0.6,5l0.6,5.8l0,0.4l-1.3,4.8l-1.4,5L764,402l-0.7,2.4L762,409l0.3,9.2l0.3,8.4l0.2,7.7l2.8,8.3l3.3,9.6l1,2.8l0.2,0.6
		l0,0.8l0,2.7l0,4.7l0,4.8l-0.1,5.8l-0.4,3.2l-2.1,18.4l-0.5,13.7l-0.2,4.6l-0.1,2l-0.1,1.3l-1.3,9l-0.7,5.1l-0.4,3.2l-0.7,5.6
		l0.3,1.9l1.1,6.4l1,5.4l0.9,5l0.2,1.2l0.1,0.5l0,0.1l0.1,0.5l-0.1,0.5l0,0.1l0,0.1l0,0.3l-0.2,1l-0.5,3.3l-0.5,2.9
		c2.4,1.8,3.5,3.6,3.6,5.6c0.1,1-0.1,2-0.4,3.1c-0.2,0.5-0.4,1.1-0.6,1.7l-0.2,0.4l-0.2,0.6l-0.5,1.3l-0.3,1.5l-0.1,0.4l0,0.2l0,0.1
		l-0.2,0.5l-0.7,2.1c-0.5,1.5-1,3-1.5,4.6c-1,3.2-1.7,6.8-1.8,10.7c0,1.6-0.1,3-0.1,4.2l-0.2,3.5l-0.3,5.5l-0.5,11.3l1.2,8.8
		l1.1,8.3l0.4,3.1l0.2,1.2l0,0.3l0,0.5l-0.1,1.7l-0.2,3.6l-0.6,10.2c0,0.7,0.3,1.3,0.3,2c0,1.1-0.3,2.3-0.2,3.4c0,0.4,0,0.7-0.1,1.1
		c0.2,0.8,0.3,1.6,0.6,2.3c1,2.5,1.5,3,2.3,4.1c0.8,1,1.6,1.9,2.4,2.7c1.6,1.8,3.2,3.6,4.5,5.8c0.6,1,1.1,2.1,1.5,3.3l0.5,1.5
		c0.1,0.4,0.2,0.7,0.3,1.1l0,0.9l-0.1,0.9l-0.2,2.8c-0.1,1.8-0.2,3.7-0.2,5.5C776.1,715.6,783.7,716.8,785.3,706.9z" style="fill: rgb(136, 0, 0);"></path>
	<path class="st0" d="M94.5,789.1c3,0.4,5.4,0.6,7.5,0.7c1,0.1,2,0.1,2.9,0.1l3.1,0.1l0.8-0.1l0.7-0.1l0.9-0.1l1.8-0.2
		c1.2-0.1,2.4-0.3,3.8-0.4c2.8-0.2,6.1-0.4,10.9-0.4c0.6,0,1.1-0.1,1.7-0.2c0.1,0,0.3-0.1,0.4-0.1l0.1-0.1c0.1-0.1,0.2-0.1,0.3-0.2
		l0.3-0.2c0.1-0.1,0.1-0.2,0.4-0.2l1.6-0.5c1.1-0.4,2.3-0.7,3.6-1c2.7-0.6,6.1-0.8,10.8,0c4.9,0.9,9.2,2,13.4,3.1l6.2,1.6l3.1,0.8
		c0.2,0.1,0.7,0.2,1.1,0.2l1.3,0.2l2.6,0.5l3-0.5l1.5-0.3c0.3-0.1,0.4-0.1,0.5-0.1l0.5-0.1c1.3-0.2,2.5-0.4,3.8-0.6
		c2.6-0.5,5.2-1,8-1.7l3.1-0.8l0.9-0.2l0.9,0.2l2.3,0.4l4.6,0.9l4.9,1l3,0.6l4.5,0.8l3.7,0.1c4.9,0.1,8.3,0.1,11.1,0.1l3.9,0l1.9,0
		l3.2,0l6.3-1.3l7.1-1.4l5.3-1l2.2-0.4l0.6-0.1l0.3,0l8.2,0.2c3.1,0,6.8,0.1,12.7,0.1c5.9-0.4,9.6-0.7,12.7-1l4.5-0.5
		c1.3-0.1,3.6-0.3,3.6-0.4l0.3,0l0.2,0l0.4,0l2.2,0.3l5.4,0.8l13.9,2.1l20.6-3.7l1.4-0.2l6.3,0.7l5.8,0.7c3.7,0.4,7.6,1.1,15,1.3
		l16.6,0.8l17.3-3.3l4.2-0.8l10,0.5l5.7,0.3c2.2,0.1,4.8,0.3,8.2,0.6c4.6,0.4,7.9,0.7,10.5,1l3.7,0.4l1.7,0.2l1.2,0.1l1.5,0.2
		l6.5-0.4c2.1-0.1,4.7-0.3,7.8-0.6c1.7-0.1,3.2-0.2,4.6-0.3l1,0c0.3,0,0.7,0,0.7,0c0.2,0,0.3,0.1,0.5,0.1c0.1,0.1,0.2,0.1,0.3,0.2
		c0.1,0,0.1,0.1,0.2,0.1l0.7,0.2l2.4,0.7c1.5,0.5,3,0.9,4.5,1.2c1.5,0.3,3.2,0.6,5.1,0.7c1,0.1,2,0.1,3.2,0.1l1.8,0l3.3,0.2l1.7-0.3
		l1.1-0.2l0.5-0.1l0.3-0.1l1.2-0.3l2.2-0.6c1.4-0.4,2.6-0.7,3.7-0.9c2.2-0.5,4-0.7,5.4-0.7c1.4-0.1,2.6,0.1,3.7,0.3l0.8,0.2
		c0.2,0.1,0.6,0.1,0.6,0.2c0.2,0.1,0.4,0.3,0.6,0.4c0.2,0.2,0.3,0.4,0.6,0.6c0.6,0.3,1.4,0.5,2.2,0.8c1.6,0.5,3.6,1.1,6.3,1.5
		c2.5,0.4,4.6,0.8,6.4,1.1l7.6,1.2l6.6-2.3l3.8-1.4c1.4-0.5,2.9-1,4.7-1.7l5.2-1.7l0.9-0.3c0.4,0.1,0.8,0.2,1.1,0.3l0.3,0.1l0.7,0.2
		l1.4,0.4c1.8,0.5,3.3,1,4.8,1.5l4.5,1.4l2.6,0.8l2.1,0.6l2.7,0.7l8.1-0.5c3.9-0.3,6.8-0.5,9.2-0.8l3.3-0.3l1.5-0.2l0.7-0.1l0.2,0
		l0.2,0l0.7,0l1.5,0l3.3,0c2.4,0,5.3,0,9.2,0.1l4.7,0.1l1,0l1,0.1l1.8,0.1l5.9,0.4l5.4,0.4l3.3,0.2l6,0.5l5.5-1.6
		c4.8-1.4,8-2.3,10.7-3l3.6-1l1.1-0.2l0.7,0.2l0.4,0.1l1.2,0.3l7.1,1.6l11.1,2.4l4.2-0.4l2.2-0.2l4.4-0.5l5.2-0.5l8.1-0.8l0.1,0
		l9.9-2.7l6.1-1.6c3.8-1,7.6-2,15.1-4.1l10.9-3l22.2-17.5l0.1-1.7l0.5-6.1l0.2-2.8l0.1-2.1c0.1-2.1,0.2-4,0.2-5.7
		c0-1.7,0-3.2-0.1-4.6l0-0.3c0-0.1,0-0.2,0-0.2l-0.1-0.2l-0.1-0.4l-0.2-0.7c0-0.5-0.1-1-0.1-1.5c0.1-0.8,0.2-1.6,0.2-2.2
		c0-1.3-0.3-2-0.6-2.5c-0.7-0.9-1.8-0.6-1.8-0.6s8.1-18.7-2.9-15.2c-2.7,0.8-5.4,2.7-8,5.1c-1.3,1.2-2.6,2.5-3.8,3.9l-0.9,1.1
		l-0.5,0.6l-0.2,0.3l-0.4,0.5c-0.9,1.4-1.8,2.8-2.8,4.3c-0.3,1.7-0.6,3.5-0.9,5.3l-0.6,3.1c-0.4,1.9-0.6,3.8-0.9,5.6l-0.4,3.4
		c0,0.2,0,0.4,0,0.6l0,0.2c-0.3,0.3-0.6,0.5-0.9,0.6c-1.5,1.1-2.8,2.1-4,3l-3.5,2.6l-0.9,0.7l-0.2,0.2l-0.1,0.1l0,0l-0.1,0l-0.3,0.1
		l-0.2,0c-0.1,0,0.1-0.1-0.9,0.2l-4.9,1.3c-7.5,2.1-11.3,3.3-15,4.4c-1.9,0.6-3.7,1.2-6.1,1.8l-3.9,1.1l-3.8,1.1h0l-6.1,0.5
		l-5.2,0.4l-4.4,0.3l-2.2,0.2l-0.4,0l-0.3-0.1l-1.8-0.4l-5.3-1.2l-7.1-1.6l-8.6-1.9l-6.8,1.9l-4,1.1c-2.7,0.7-6,1.6-10.7,3l-1,0.3
		l-10.5-0.7l-6.1-0.4l-1.9-0.1l-1-0.1l-1.1,0l-4.9-0.1l-9.6-0.2l-7.2-0.2l-7,0.4l-9.2,0.6l-3.3,0.2l-0.3,0l-0.1,0l-0.2,0l-0.2,0
		l-0.1,0l0,0l-0.2,0l-0.4-0.1l-2.6-0.6l-4.6-1.1l-4.9-1.1l-3.8-0.9l-6.7-1.7l-5,1.6l-7.9,2.5l-4.8,1.4l-3.9,1.2
		c-0.2,0.1-0.2,0-0.2,0l-0.1,0l-0.1,0l-0.2,0l-0.2-0.1l-0.1,0l0,0l-0.2,0l-0.7-0.1l-6.4-1.1l-5.9-1l-6.1-1l-3.9,0.3l-2.1,0.2
		l-4.2,0.3l-5.1,0.4l-6.2,0.4l-0.1,0l-5.4-1l-5.1-1l-4.4-0.9l-2.4-0.5l-4.5-0.9l-10.2,0.8c-5,0.4-7.6,1-9.2,1.7
		c-0.8,0.3-1.4,0.7-2,1l-0.4,0.3l-0.2,0.1l-0.1,0.1c-0.1,0.2-0.2,0.3-0.3,0.5l-0.2,0.2l-0.1,0.1c0,0-0.1,0.1-0.2,0.1
		c-0.6,0.1-1.2,0.1-2,0.2c-1.6,0.1-3.6,0-6.4-0.2c-6.8-0.6-12.1-1.8-17.3-2.9c-2.6-0.6-5.1-1.2-7.7-1.7c-1.3-0.3-2.7-0.5-4.1-0.8
		l-2.1-0.3l-0.1,0l-0.2,0l-0.5-0.1l-1-0.1l-2.1-0.2l-4.6,0.7c-1,0.2-1.9,0.3-2.9,0.5l-9.5,1.8l-3.4,0.7l-1.3,0.2l-0.2,0
		c0.5,0-2.2-0.1-4.4-0.2l-8.7-0.4c-7.2-0.2-11-0.7-14.6-0.9l-5.6-0.5l-3.4-0.3l-6.1-0.6l-4.8,0.9c-4.9,0.9-8.3,1.5-11.1,1.9
		l-3.9,0.6l-0.9,0.1l-0.2,0l0,0l-0.1,0l-0.2,0l-0.3-0.1l-0.1,0l-0.3-0.1l-0.7-0.1l-1.4-0.2l-7-1.1l-11-1.7l-22.7,1.3
		c-5.7,0-9.2,0.1-12.3,0.3l-4.3,0.2l-2.2,0.1l-0.6,0l-0.9,0l-2.4,0l-5.4,1.2l-5.3,1.1c-2.8,0.6-5.1,1-7.1,1.3l-2.8,0.5l-0.6,0.1
		c-0.1,0-0.1,0-0.1,0l-0.2,0l-0.1-0.1l-0.1,0l0,0l-0.2,0l-1.9-0.1l-3.9-0.3c-2.8-0.2-6.2-0.3-11.1-0.4l-1.7,0l-23.6-4.1l-9.3,2.4
		c-3.8,1-6.7,1.8-9.1,2.4l-3.3,1l-0.1,0l0,0l0,0l0,0l-0.1,0.1l-0.2,0.1c-0.1,0-0.2,0.1-0.4,0.1l-3.3-0.3c-2.4-0.2-5.3-0.5-9.1-0.9
		c-7.2-0.8-11-1.4-14.6-1.9l-5.6-0.9l-3.4-0.5l-2-0.3l-3.3-0.4l-4.3,0.2c-4.8,0.2-8.1,0.2-10.9,0.2l-3.8,0l-2.9,0.1l-1.8-0.1
		c-0.9,0-1.8,0-2.8,0c-2.1,0-4.5,0-7.4,0.1c-4,0.1-7.3,0.5-10.1,0.9c-2.8,0.4-5.1,1-7.3,1.6c-2.1,0.6-4,1.4-6,2.1
		c-0.9,0.4-2,0.7-2.9,1.1c-0.6,0.4-1.4,0.8-2.2,1.1c-0.6,0.1-1.3,0.1-2.1,0c-0.3,0-0.9-0.1-1.4-0.2l-1.6-0.3c-4.1-0.9-5.8-0.1-5.6,2
		c0.1,1,0.7,2.4,1.8,3.9c0.5,0.8,1.2,1.6,1.9,2.5c0.1,0.1,0.2,0.2,0.3,0.4l0.4,0.4l0.9,0.8c0.6,0.6,1.3,1.2,2.1,1.8
		c1.1,0.4,2.4,0.8,3.8,1.2c0.8,0.2,1.2,0.4,1.7,0.5l1.5,0.5c2.1,0.7,4.4,1.4,6.8,2c2.4,0.6,5,1.2,7.7,1.8
		C88.7,788.3,91.6,788.8,94.5,789.1z" style="fill: rgb(136, 0, 0);"></path>
</g>
</svg>
