<!--?xml version="1.0" encoding="utf-8"?-->
<!-- Generator: Adobe Illustrator 18.1.1, SVG Export Plug-In . SVG Version: 6.00 Build 0)  -->

<svg version="1.1" id="_x32_" xmlns="http://www.w3.org/2000/svg" xmlns:xlink="http://www.w3.org/1999/xlink" x="0px" y="0px" viewBox="0 0 512 512" style="width: 256px; height: 256px; opacity: 1;" xml:space="preserve">
<style type="text/css">
	.st0{fill:#4B4B4B;}
</style>
<g>
	<path class="st0" d="M255.996,118.256c-15.289,0-27.685,12.406-27.685,27.704c0,15.288,12.396,27.685,27.685,27.685
		c15.297,0,27.712-12.397,27.712-27.685C283.708,130.663,271.293,118.256,255.996,118.256z" style="fill: rgba(0, 0, 0, 0.05);"></path>
	<path class="st0" d="M491.866,156.348c-12.879-30.461-31.371-57.905-54.854-81.36c-23.455-23.473-50.89-41.974-81.36-54.853
		c-31.55-13.352-65.18-20.134-99.656-20.134c-34.468,0-68.098,6.783-99.647,20.134c-30.461,12.879-57.897,31.38-81.361,54.853
		c-23.472,23.455-41.965,50.899-54.844,81.36C6.792,187.899,0,221.519,0,256.005c0,34.468,6.792,68.098,20.144,99.647
		c12.879,30.461,31.372,57.897,54.844,81.361c23.464,23.481,50.9,41.974,81.361,54.852c31.549,13.352,65.179,20.134,99.647,20.134
		c34.477,0,68.106-6.782,99.656-20.134c30.47-12.879,57.905-31.371,81.369-54.852c23.473-23.464,41.965-50.9,54.844-81.361
		c13.351-31.549,20.144-65.179,20.134-99.647C512.009,221.519,505.217,187.899,491.866,156.348z M255.996,393.735
		c-15.289,0-27.685-12.396-27.685-27.686c0-15.297,12.396-27.685,27.685-27.685c15.297,0,27.712,12.388,27.712,27.685
		C283.708,381.339,271.293,393.735,255.996,393.735z M333.643,223.598c-19.868,19.867-47.321,32.166-77.647,32.166
		c-60.914,0-110.286,49.374-110.286,110.286c0,57.406,43.866,104.565,99.906,109.796c-116.729-5.427-209.71-101.763-209.71-219.84
		c0-121.558,98.542-220.099,220.091-220.099v0.223c30.326,0,57.78,12.298,77.647,32.165c19.876,19.885,32.166,47.338,32.166,77.666
		C365.809,176.269,353.519,203.722,333.643,223.598z" style="fill: rgba(0, 0, 0, 0.05);"></path>
</g>
</svg>
